simulation
nRows=55
nColumns=15
endheader
time  TH_x TH_y TH_z SC_y  SC_z  SC_x  AC_y  AC_z  AC_x  GH_y  GH_z  GH_yy  EL_x  PS_y
0.250000  0.000000  0.000000  0.000000  -29.647925  0.108940  19.108888  43.384373  -11.963519  -20.377415  15.891408  17.843242  -15.477087  17.255141  132.133496
0.250206  0.000000  0.000000  0.000000  -24.352075  -4.594644  19.108888  53.441512  -5.003708  -20.355888  40.605494  17.753578  -6.809528  12.780744  116.723778
0.250412  0.000000  0.000000  0.000000  -38.675028  -1.381290  19.108888  60.172853  -1.692967  -2.418596  12.782582  22.688911  -1.800257  30.691242  129.373369
0.250618  0.000000  0.000000  0.000000  -31.934765  1.450477  19.108888  54.575291  -22.111223  -4.496684  24.576583  24.662688  -13.705628  20.362316  125.814519
0.250824  0.000000  0.000000  0.000000  -30.035664  4.614750  19.108888  45.520280  -10.347259  -5.933479  14.850328  25.151975  -2.555407  17.834036  133.349041
0.251031  0.000000  0.000000  0.000000  -19.883207  -12.264439  19.108888  60.620380  -9.202864  -12.124888  31.351187  24.327609  -8.343245  18.853521  127.674896
0.251237  0.000000  0.000000  0.000000  -24.977966  4.428684  19.108888  46.725483  -12.128441  -9.462874  23.274147  28.192878  -8.229755  22.160686  130.773556
0.251443  0.000000  0.000000  0.000000  -22.627591  -2.942184  19.108888  38.621524  -19.842579  -29.689817  35.636552  18.267550  -4.182476  19.450759  117.082481
0.251649  0.000000  0.000000  0.000000  -31.112444  -0.968519  -0.678670  53.124713  8.185980  -3.311297  26.582739  24.571918  -11.036574  21.664387  126.432179
0.251855  0.000000  0.000000  0.000000  -31.112444  -0.968519  -12.678670  51.431679  17.691894  4.213560  26.582739  24.571918  -11.036574  21.664387  126.432179
0.252061  0.000000  0.000000  0.000000  -31.798432  5.723060  -12.678670  50.520322  2.902313  15.261542  33.784879  20.359703  -12.289044  22.849881  126.778513
0.252267  0.000000  0.000000  0.000000  -22.193388  -9.756630  -12.678670  61.022884  15.476810  10.459477  21.522139  23.919163  -17.812699  22.542649  118.679677
0.252473  0.000000  0.000000  0.000000  -34.722716  -0.557233  -12.678670  46.548967  15.486187  10.580996  31.375156  18.954654  -17.596843  13.306774  133.226155
0.252679  0.000000  0.000000  0.000000  -16.865498  -14.606751  -12.678670  58.841086  6.468302  11.679122  17.004225  30.712067  -11.092460  18.499019  117.798366
0.252885  0.000000  0.000000  0.000000  -27.751942  -3.077395  -12.678670  46.795986  9.695355  -2.698545  16.569837  17.939565  -17.401656  30.384143  130.050772
0.253092  0.000000  0.000000  0.000000  -45.340872  -9.930945  -12.678670  65.642958  31.574953  3.197980  36.234159  30.426377  -12.636315  27.791231  119.801654
0.253298  0.000000  0.000000  0.000000  -31.112444  -0.968519  -7.345336  52.350921  13.494117  0.797021  26.582739  24.571918  -11.036574  21.664387  126.432179
0.253504  0.000000  0.000000  0.000000  -18.030513  -5.461591  -7.345336  37.880843  -0.240703  -4.478487  15.939408  33.393055  -4.084686  17.531187  129.920727
0.253710  0.000000  0.000000  0.000000  -19.602535  -2.396640  -7.345336  61.996039  13.839512  9.105753  37.450787  22.287390  -17.607108  18.696260  120.132359
0.253916  0.000000  0.000000  0.000000  -33.134799  13.037589  -7.345336  45.968113  9.460621  5.081098  34.756086  29.328784  -7.304978  12.586461  136.359862
0.254122  0.000000  0.000000  0.000000  -24.845686  -9.507249  -7.345336  60.248726  12.968265  6.910673  33.148010  30.229333  -12.789982  14.608933  127.184253
0.254328  0.000000  0.000000  0.000000  -25.503024  -12.891032  -7.345336  49.666191  0.444276  -9.263673  19.534456  30.251974  -5.582943  20.374979  133.447788
0.254534  0.000000  0.000000  0.000000  -25.424290  6.617095  -7.345336  50.283605  20.295591  3.055008  17.953056  30.481285  -13.291558  26.905998  132.868079
0.254740  0.000000  0.000000  0.000000  -31.112444  -0.968519  -2.012003  53.001830  9.251731  -2.500698  26.582739  24.571918  -11.036574  21.664387  126.432179
0.254946  0.000000  0.000000  0.000000  -38.079220  13.869639  -2.012003  40.018925  1.230907  6.128339  23.974769  27.109362  -19.113544  26.824218  122.694271
0.255153  0.000000  0.000000  0.000000  -45.421837  10.420368  -2.012003  39.204950  -5.354363  -5.694753  34.947924  19.112995  -5.094741  13.515593  120.726511
0.255359  0.000000  0.000000  0.000000  -41.852425  13.282653  -2.012003  39.605965  -3.969642  5.512091  27.585290  14.851259  -20.548546  25.388860  118.622896
0.255565  0.000000  0.000000  0.000000  -39.242363  -0.669979  -2.012003  48.634535  -0.734904  -6.406233  22.774198  15.700099  -13.347931  30.480183  124.908261
0.255771  0.000000  0.000000  0.000000  -24.599568  9.914313  -2.012003  50.281298  1.669662  4.614439  12.321782  25.231075  -3.825339  20.768895  118.697290
0.255977  0.000000  0.000000  0.000000  -39.999795  -11.966522  -2.012003  62.614660  15.004376  -9.926620  21.865203  17.571225  -19.765639  26.086326  132.569483
0.256183  0.000000  0.000000  0.000000  -17.512556  1.977288  -2.012003  52.332450  17.479327  -6.063356  35.401153  19.984480  -7.050657  14.240867  117.342159
0.256389  0.000000  0.000000  0.000000  -40.005426  -0.235766  -2.012003  49.922686  1.610625  -1.503913  12.181802  19.819532  -2.217592  20.011299  118.216257
0.256595  0.000000  0.000000  0.000000  -30.391231  2.092191  -2.012003  64.347796  20.296822  7.869041  18.375397  21.872056  -10.180406  20.163436  134.598494
0.256801  0.000000  0.000000  0.000000  -33.167840  12.622720  -2.012003  49.881570  8.959109  11.771720  27.966671  19.873438  -10.654809  31.002060  120.356213
0.257007  0.000000  0.000000  0.000000  -22.408596  -15.629656  -2.012003  65.083845  17.072602  -6.564804  30.840965  29.906931  -20.222308  21.829797  129.548269
0.257214  0.000000  0.000000  0.000000  -31.112444  -0.968519  3.321330  53.400936  4.979954  -5.719446  26.582739  24.571918  -11.036574  21.664387  126.432179
0.257420  0.000000  0.000000  0.000000  -37.481140  7.311063  3.321330  46.090017  8.831589  1.636836  40.122694  21.885986  -15.367346  31.151305  129.893805
0.257626  0.000000  0.000000  0.000000  -40.180967  5.477759  3.321330  54.676701  1.047712  1.874383  32.940873  27.127804  -3.815616  15.318169  119.268525
0.257832  0.000000  0.000000  0.000000  -30.513020  -3.594452  3.321330  55.485264  11.793082  2.214490  29.793802  32.528415  -8.006690  29.645449  128.548845
0.258038  0.000000  0.000000  0.000000  -39.527557  0.757847  3.321330  61.749666  -1.775718  4.983568  29.291623  17.304449  -12.731561  28.662030  119.532364
0.258244  0.000000  0.000000  0.000000  -18.661554  -7.691957  3.321330  65.263276  14.547769  -1.778424  15.675249  23.937488  -13.002196  19.745281  130.073643
0.258450  0.000000  0.000000  0.000000  -43.911509  5.821822  3.321330  55.539679  5.571294  2.941204  13.942324  23.588844  -19.908186  17.579984  120.086781
0.258656  0.000000  0.000000  0.000000  -28.620419  12.956714  3.321330  41.292886  -7.462540  -3.063086  31.882568  18.578441  -11.677242  24.634131  130.153939
0.258862  0.000000  0.000000  0.000000  -26.635587  -6.161833  3.321330  58.308252  19.406960  3.782952  34.036873  20.369918  -15.241343  24.905155  119.569435
0.259068  0.000000  0.000000  0.000000  -23.276372  12.936373  3.321330  40.332265  0.141275  -2.618099  26.916087  22.159976  -1.507557  24.806780  119.713843
0.259275  0.000000  0.000000  0.000000  -25.264939  1.304458  3.321330  50.290511  0.992361  -2.321747  14.039797  15.780515  -10.568808  15.667126  124.849916
0.259481  0.000000  0.000000  0.000000  -38.919610  1.706885  3.321330  56.210328  -1.362379  0.872660  24.810222  30.093928  -5.261498  22.165199  129.482388
0.259687  0.000000  0.000000  0.000000  -38.419069  4.382048  3.321330  55.112576  5.298621  1.380728  38.143608  19.176718  -4.550195  16.084337  126.278296
0.259893  0.000000  0.000000  0.000000  -20.291597  2.428802  3.321330  55.971902  15.969942  -2.513778  21.258456  30.189971  -18.216140  26.631878  117.938354
0.260099  0.000000  0.000000  0.000000  -40.238827  -5.094665  3.321330  59.056784  0.562010  5.648112  17.890315  23.803893  -2.425595  16.401657  133.192118
0.260305  0.000000  0.000000  0.000000  -31.112444  -0.968519  8.654664  53.558299  0.692746  -8.896512  26.582739  24.571918  -11.036574  21.664387  126.432179
0.260511  0.000000  0.000000  0.000000  -17.657227  2.515025  8.654664  55.265002  8.006755  -6.306247  24.402600  25.886898  -19.132345  19.656322  120.366486
0.260717  0.000000  0.000000  0.000000  -19.642561  3.092158  8.654664  50.388991  -4.008934  1.099141  39.521639  29.928010  -11.460953  17.149573  128.260818
0.260923  0.000000  0.000000  0.000000  -24.913948  5.311235  8.654664  44.477563  -9.827574  -5.215509  37.045652  31.286449  -1.059002  30.519702  134.015071
0.261129  0.000000  0.000000  0.000000  -38.588767  2.676394  8.654664  49.563562  4.979505  -5.371781  15.719319  15.543787  -15.501310  14.758874  128.868059
